<svg width="369" height="248" viewBox="0 0 369 248" fill="none" xmlns="http://www.w3.org/2000/svg">
<path d="M280.166 52.9798C276.57 44.7591 262.595 42.8857 238.651 47.3797C216.894 51.4552 189.563 60.4034 161.683 72.5601C133.802 84.7168 108.679 98.6671 90.8982 111.82C71.3291 126.319 63.2278 137.818 66.834 146.028C69.1615 151.349 75.8243 154 86.7526 154C93.364 153.898 99.9543 153.231 106.452 152.007L106.522 152.087L106.671 151.957C107.231 151.858 107.78 151.778 108.35 151.658C130.106 147.573 157.437 138.625 185.267 126.468C213.098 114.311 238.281 100.371 256.062 87.2179C275.671 72.6797 283.772 61.2005 280.166 52.9798ZM182.55 120.071C160.384 129.726 138.597 137.319 119.857 141.993C136.579 130.414 158.976 118.277 183.789 107.466C203.8 98.7263 224.477 91.5891 245.623 86.1218C228.771 97.5909 206.715 109.548 182.55 120.071ZM259.059 75.9879C236.283 80.2925 207.114 89.6592 180.952 101.079C149.236 114.909 121.236 130.972 103.675 145.381C92.127 147.254 75.5646 148.45 73.277 143.248C70.7497 137.479 85.8036 124.316 95.1037 117.42C112.465 104.566 137.129 90.9047 164.53 78.9473C191.93 66.9899 218.732 58.2211 239.989 54.2254C246.872 52.8976 253.857 52.1642 260.867 52.0332C267.29 52.0332 272.584 53.0297 273.853 55.7699C275.701 60.2041 267.25 69.0227 259.019 75.9879H259.059Z" fill="black"/>
<path d="M366.514 73.4557L345.209 24.7411C337.33 6.72826 311.83 -1.90788 273.365 0.353732C236.092 2.5553 190.619 14.6639 145.336 34.448C100.054 54.2321 60.2372 79.4 33.3459 105.268C5.57358 131.937 -5.38913 156.535 2.49004 174.528L23.7949 223.252C30.803 239.364 52.0377 248 84.0049 248C87.7426 248 91.6204 247.88 95.6384 247.64C132.912 245.438 178.385 233.33 223.668 213.535C268.95 193.741 308.767 168.593 335.658 142.735C363.43 116.056 374.383 91.4485 366.514 73.4557ZM8.90743 171.726C2.38984 156.835 13.0723 134.449 38.2016 110.302C64.5522 85.004 103.598 60.3464 148.14 40.8826C192.682 21.4187 237.303 9.50024 273.786 7.35872C277.62 7.11855 281.315 7.01851 284.869 7.01851C313.592 7.01851 332.985 14.2936 338.792 27.5531C345.299 42.4437 334.627 64.8296 309.488 88.9768C283.147 114.285 244.101 138.952 199.559 158.416C155.018 177.88 110.396 189.779 73.9132 191.94C39.1127 193.992 15.425 186.626 8.90743 171.726ZM330.802 137.701C304.452 162.999 265.406 187.657 220.864 207.121C176.322 226.585 131.701 238.513 95.218 240.655C60.4175 242.656 36.7299 235.341 30.2223 220.44L16.8167 189.799C27.5392 196.033 43.0873 199.285 62.7002 199.285C66.4345 199.285 70.309 199.175 74.3237 198.935C111.607 196.743 157.08 184.625 202.363 164.841C247.646 145.057 287.462 119.909 314.343 94.0404C332.504 76.588 343.477 60.0162 346.691 45.646L360.126 76.2677C366.614 91.1583 355.932 113.574 330.802 137.691V137.701Z" fill="black"/>
<path d="M339.13 27.5059C333.317 14.265 313.902 7 285.147 7C281.588 7 277.89 7.09996 274.051 7.33979C237.528 9.47832 192.865 21.3302 148.263 40.8168C103.661 60.3034 64.5812 84.8765 38.2008 110.139C13.0431 134.253 2.3486 156.607 8.87355 171.477C15.3985 186.347 39.1129 193.712 73.9527 191.663C110.476 189.505 155.139 177.673 199.741 158.186C244.343 138.7 283.423 114.116 309.793 88.8438C334.961 64.7703 345.645 42.4157 339.13 27.5059ZM256.882 86.9951C239.041 100.186 213.783 114.166 185.849 126.358C157.915 138.55 130.462 147.523 108.672 151.621C108.101 151.741 107.55 151.82 106.988 151.92L106.838 152.05L106.768 151.97C100.249 153.198 93.6362 153.867 87.0026 153.969C76.0475 153.969 69.3521 151.301 67.0168 145.975C63.3985 137.74 71.5272 126.208 91.1622 111.668C109.003 98.4771 134.261 84.4968 162.185 72.2952C190.109 60.0935 217.582 51.1297 239.412 47.0425C263.467 42.5356 277.499 44.4143 281.067 52.6586C284.635 60.903 276.517 72.475 256.882 87.035V86.9951Z" fill="#F2CFFF"/>
<path d="M259.873 75.9682C236.998 80.2753 207.702 89.6473 181.427 101.073C149.572 114.912 121.451 130.984 103.813 145.4C92.215 147.275 75.5806 148.471 73.2831 143.267C70.7448 137.494 85.8643 124.324 95.2048 117.424C112.642 104.563 137.413 90.8935 164.933 78.9293C192.453 66.9652 219.371 58.1914 240.72 54.1934C247.634 52.8649 254.649 52.1311 261.689 52C268.14 52 273.457 52.997 274.732 55.7388C276.628 60.1755 268.14 68.9991 259.873 75.9682Z" fill="black"/>
<path d="M330.834 137.894C304.496 163.157 265.469 187.771 220.949 207.201C176.429 226.631 131.828 238.528 95.3634 240.676C60.5797 242.674 36.9036 235.371 30.3991 220.497L17 189.909C27.7173 196.133 43.258 199.379 62.8613 199.379C66.5938 199.379 70.4665 199.269 74.4792 199.03C111.745 196.832 157.196 184.745 202.456 164.985C247.717 145.226 287.514 120.132 314.383 94.3093C332.535 76.8976 343.502 60.345 346.714 46L360.144 76.5779C366.628 91.4423 355.951 113.819 330.834 137.894Z" fill="#A388EE"/>
</svg>
